<?xml version="1.0" encoding="UTF-8"?>
<svg id="Layer_1" data-name="Layer 1" xmlns="http://www.w3.org/2000/svg" xmlns:xlink="http://www.w3.org/1999/xlink" viewBox="0 0 950 950">
  <defs>
    <style>
      .cls-1 {
        fill: url(#GradientFill_1);
      }

      .cls-1, .cls-2, .cls-3, .cls-4, .cls-5, .cls-6, .cls-7 {
        fill-rule: evenodd;
      }

      .cls-2 {
        fill: url(#GradientFill_2);
      }

      .cls-3 {
        fill: #fff;
      }

      .cls-4 {
        fill: #fff000;
      }

      .cls-5 {
        fill: #009844;
      }

      .cls-8, .cls-6 {
        fill: #e50013;
      }
    </style>
    <radialGradient id="GradientFill_1" data-name="GradientFill 1" cx="473.3" cy="435.87" fx="473.3" fy="435.87" r="470.45" gradientUnits="userSpaceOnUse">
      <stop offset="0" stop-color="#aacc05"/>
      <stop offset="1" stop-color="#009844"/>
    </radialGradient>
    <linearGradient id="GradientFill_2" data-name="GradientFill 2" x1="471.67" y1="405.75" x2="471.67" y2="976.68" gradientUnits="userSpaceOnUse">
      <stop offset="0" stop-color="#00a0e8"/>
      <stop offset="1" stop-color="#008bd5"/>
    </linearGradient>
  </defs>
  <g>
    <g>
      <path class="cls-7" d="m201.53,862.81c-30.27,7.29-26.91-79.19-137.49-106.8,45.27-27.33,56.06-13.88,91.66-11.35-8.55-26.49-31.69-41.38-49.61-59.28,91.94-21.72,91.8,64.19,138.33,88.72-10.09,26.63-20.18,53.26-30.27,79.89-4.2,2.94-8.41,5.89-12.61,8.83Z"/>
      <path class="cls-4" d="m72.21,754.92c36.4,10.38,65.82,28.83,88.95,59.75,4.01,5.36,7.72,10.92,11.3,16.58,2.96,4.67,5.81,9.43,8.82,14.06,3.12,4.79,8.41,12.89,14.3,14.46,1.55.41,3.1.4,4.65.09,3.77-2.64,7.53-5.27,11.3-7.91,9.65-25.47,19.31-50.95,28.96-76.42-1.96-1.15-3.84-2.42-5.66-3.78-14.77-11.06-24.84-28.32-34.99-43.43-6.23-9.27-12.91-18.55-21.2-26.12-19.28-17.6-41.88-19.74-66.11-14.98,18.12,17.16,38.01,31.15,46.19,56.47l1.44,4.46-4.68-.33c-6.98-.49-13.78-1.5-20.67-2.71-5.53-.97-11.1-2.05-16.69-2.54-7.59-.67-14.46-.09-21.81,1.94-8.27,2.28-16.44,6.14-24.09,10.41Z"/>
    </g>
    <path class="cls-7" d="m748.38,862.81c30.27,7.29,26.91-79.19,137.49-106.8-45.27-27.33-56.06-13.88-91.66-11.35,8.55-26.49,31.69-41.38,49.61-59.28-91.94-21.72-91.8,64.19-138.33,88.72,10.09,26.63,20.18,53.26,30.27,79.89,4.2,2.94,8.41,5.89,12.61,8.83Z"/>
    <path class="cls-4" d="m877.7,754.92c-7.65-4.27-15.82-8.12-24.09-10.41-7.36-2.03-14.23-2.61-21.81-1.94-5.6.49-11.16,1.57-16.69,2.54-6.89,1.21-13.69,2.22-20.67,2.71l-4.68.33,1.44-4.46c8.17-25.32,28.07-39.31,46.19-56.47-24.23-4.76-46.83-2.63-66.11,14.98-23.22,21.19-34.63,57.26-61.85,73.33,9.65,25.47,19.31,50.95,28.96,76.42,3.76,2.64,7.53,5.27,11.3,7.91,1.55.31,3.1.32,4.65-.09,5.89-1.57,11.18-9.66,14.3-14.46,3.02-4.63,5.87-9.38,8.82-14.06,3.58-5.66,7.29-11.22,11.3-16.58,23.13-30.92,52.55-49.36,88.95-59.75Z"/>
    <path class="cls-7" d="m185,814.87c.89,15.98,31.99,30.51,16.54,47.94,27.47-9.11,54.94-18.22,82.41-27.33-20.6-10.93-41.2-21.86-61.81-32.8-12.38,4.06-24.76,8.12-37.14,12.18Z"/>
    <path class="cls-4" d="m188.57,817.03c1.46,5.18,6.4,10.79,9.45,14.49,6.58,7.99,13.07,16.52,10.38,25.68,22.5-7.46,45.01-14.93,67.51-22.39-18.03-9.56-36.05-19.13-54.08-28.69-11.09,3.64-22.18,7.28-33.27,10.91Z"/>
    <path class="cls-7" d="m764.69,803.74c6.82,26.45-31.77,41.64-16.31,59.07-27.47-9.11-54.94-18.22-82.41-27.33,20.6-10.93,41.2-21.86,61.81-32.8,12.38,4.06,24.53-3.01,36.91,1.05Z"/>
    <path class="cls-4" d="m762,806.27c-2.28-.54-4.6-.71-6.96-.66-9.44.19-17.56,3.07-26.93.49-18.04,9.57-36.08,19.14-54.12,28.71,22.63,7.51,45.27,15.01,67.9,22.52-.24-1.04-.37-2.11-.37-3.23,0-5.17,2.7-9.99,5.52-14.15,3.07-4.55,6.58-8.78,9.53-13.41,4.03-6.3,6.73-12.84,5.42-20.26Z"/>
  </g>
  <path class="cls-7" d="m764.69,803.74c-70.31,73.39-169.14,119.26-278.17,119.26h-34.46c-103.41,0-197.64-41.27-267.07-108.13l61.13-62.5,243.74-160.93,30.65,13.63,180.42,139.46,63.75,59.22Z"/>
  <path class="cls-4" d="m760.17,803.87l-61.28-56.93-180.01-139.14-28.72-12.77-242.01,159.79-58.66,59.97c71.08,67.35,164.46,105.04,262.56,105.04h34.46c103.5,0,201.6-41.98,273.66-115.97Z"/>
  <path class="cls-7" d="m803.77,27.09v490.55c0,173.12-141.63,314.75-314.75,314.75h-28.13c-173.12,0-314.75-141.63-314.75-314.75V27.09h657.63Z"/>
  <path class="cls-7" d="m187.22,582.49l.16.84c.34,1.71.7,3.41,1.07,5.1l.24,1.1c.37,1.66.75,3.3,1.15,4.95l.28,1.15c.41,1.65.83,3.3,1.27,4.95l.26.97c.46,1.71.94,3.42,1.44,5.12l.11.38c2.78,9.45,6.05,18.69,9.79,27.69l.22.55c.66,1.58,1.34,3.14,2.02,4.7.15.35.31.7.46,1.05.66,1.49,1.34,2.97,2.03,4.45l.55,1.18c.69,1.46,1.4,2.92,2.11,4.37l.55,1.11c.74,1.47,1.48,2.94,2.24,4.4l.48.9c.81,1.53,1.63,3.06,2.46,4.58l.07.12c3.72,6.73,7.71,13.3,11.96,19.68.15.22.29.45.44.67.89,1.33,1.8,2.65,2.72,3.96.27.39.54.78.81,1.16.87,1.24,1.75,2.47,2.64,3.69.33.45.66.9.99,1.35.87,1.18,1.75,2.35,2.63,3.51.37.48.73.96,1.1,1.44.89,1.15,1.79,2.3,2.7,3.44.35.44.7.87,1.05,1.3.95,1.17,1.9,2.34,2.86,3.5.29.35.59.7.89,1.05,1.03,1.23,2.07,2.45,3.13,3.66l.12.14c3.61,4.14,7.35,8.16,11.2,12.07.31.31.61.63.91.94,1,1.01,2.01,2,3.03,2.99.48.47.95.94,1.44,1.4.95.91,1.91,1.81,2.87,2.71.57.53,1.14,1.06,1.71,1.59.93.86,1.88,1.71,2.82,2.56.6.54,1.21,1.08,1.81,1.61.95.83,1.9,1.66,2.85,2.48.62.53,1.24,1.05,1.86,1.57.96.81,1.93,1.62,2.9,2.42.63.52,1.26,1.02,1.9,1.53.99.79,1.97,1.59,2.97,2.37.6.47,1.21.93,1.81,1.39,1.05.81,2.09,1.61,3.15,2.4l.16.11c2.5,1.87,5.05,3.68,7.62,5.46.7.48,1.39.98,2.09,1.45.95.65,1.91,1.28,2.86,1.91.79.52,1.58,1.05,2.38,1.57.94.61,1.9,1.21,2.85,1.81.83.52,1.66,1.05,2.5,1.56.94.58,1.88,1.15,2.83,1.71.87.52,1.73,1.03,2.6,1.54.93.54,1.86,1.08,2.8,1.61.92.52,1.84,1.04,2.76,1.55.91.5,1.82,1.01,2.74,1.5.96.52,1.92,1.02,2.88,1.53.91.48,1.81.96,2.73,1.42,1.02.52,2.04,1.02,3.06,1.53.86.43,1.72.86,2.58,1.27,1.29.62,2.6,1.23,3.9,1.83.83.38,1.66.77,2.49,1.15,1.67.75,3.34,1.49,5.02,2.21.79.34,1.59.66,2.38.99,1.16.48,2.32.97,3.49,1.43.88.35,1.77.69,2.65,1.03,1.11.43,2.23.86,3.35,1.28.89.33,1.79.66,2.69.98,1.12.4,2.24.8,3.36,1.19.9.31,1.81.62,2.72.92,1.13.38,2.27.75,3.41,1.12.91.29,1.81.58,2.73.86,1.18.36,2.36.71,3.54,1.06.88.26,1.75.52,2.63.76,1.24.35,2.5.69,3.75,1.02.84.22,1.67.45,2.51.67,1.44.37,2.89.72,4.35,1.07.65.15,1.29.32,1.94.47,2.09.48,4.19.94,6.29,1.38.57.12,1.15.22,1.72.34,1.56.31,3.11.62,4.68.9.81.15,1.63.28,2.45.42,1.34.23,2.68.46,4.03.67.88.14,1.77.27,2.66.4,1.28.19,2.56.37,3.85.54.91.12,1.83.23,2.75.35,1.28.16,2.56.3,3.85.44.93.1,1.86.2,2.79.29,1.28.13,2.56.24,3.84.34.94.08,1.88.16,2.82.23,1.33.1,2.66.18,3.99.26.88.05,1.76.11,2.64.15,1.51.08,3.02.12,4.53.17.72.02,1.43.06,2.15.07,2.24.06,4.49.09,6.74.09h28.13c2.25,0,4.5-.03,6.74-.09.72-.02,1.44-.05,2.16-.07,1.51-.05,3.02-.1,4.52-.17.88-.04,1.75-.1,2.63-.15,1.35-.08,2.69-.16,4.03-.26.91-.07,1.83-.14,2.74-.22,1.31-.11,2.62-.22,3.92-.35.91-.09,1.83-.18,2.74-.28,1.29-.14,2.57-.29,3.85-.44.93-.11,1.86-.23,2.78-.35,1.28-.17,2.57-.35,3.84-.54.88-.13,1.77-.26,2.65-.39,1.36-.21,2.7-.44,4.05-.68.81-.14,1.62-.27,2.43-.42,1.62-.29,3.22-.61,4.83-.93.52-.1,1.03-.2,1.55-.3,2.12-.44,4.22-.9,6.32-1.39.63-.15,1.25-.31,1.88-.46,1.47-.35,2.93-.7,4.39-1.08.84-.22,1.68-.45,2.52-.67,1.24-.33,2.48-.66,3.72-1.01.89-.25,1.77-.51,2.66-.77,1.18-.35,2.35-.69,3.52-1.05.91-.28,1.81-.57,2.72-.86,1.14-.36,2.28-.74,3.42-1.12.91-.31,1.82-.61,2.73-.93,1.12-.39,2.24-.79,3.35-1.19.9-.32,1.8-.65,2.69-.98,1.11-.41,2.22-.84,3.32-1.27.9-.35,1.79-.69,2.68-1.04,1.16-.46,2.31-.94,3.47-1.42.8-.33,1.6-.66,2.4-1,1.63-.7,3.25-1.41,4.87-2.14.94-.42,1.86-.85,2.79-1.28,1.25-.58,2.5-1.16,3.75-1.76.86-.42,1.72-.85,2.58-1.27,1.03-.51,2.06-1.02,3.08-1.54.91-.46,1.81-.94,2.71-1.41.97-.51,1.93-1.02,2.9-1.53.92-.49,1.83-1,2.74-1.51.92-.51,1.83-1.02,2.74-1.54.94-.54,1.89-1.08,2.82-1.63.86-.5,1.72-1.01,2.58-1.53.95-.57,1.89-1.14,2.83-1.71.85-.52,1.7-1.06,2.54-1.59.94-.59,1.87-1.18,2.8-1.78.81-.53,1.62-1.07,2.43-1.6.94-.62,1.89-1.24,2.82-1.88.7-.48,1.39-.97,2.09-1.45,2.32-1.61,4.61-3.25,6.88-4.93.31-.23.62-.44.92-.67,1.05-.78,2.08-1.58,3.12-2.38.61-.46,1.22-.92,1.82-1.39,1.01-.79,2-1.59,2.99-2.39.63-.51,1.26-1.01,1.88-1.52.97-.8,1.94-1.61,2.9-2.42.62-.53,1.25-1.05,1.87-1.58.95-.82,1.9-1.64,2.84-2.47.61-.53,1.21-1.07,1.81-1.61.96-.86,1.91-1.72,2.86-2.6.55-.5,1.09-1.01,1.63-1.52.98-.91,1.95-1.83,2.91-2.76.49-.47.97-.95,1.46-1.42,1-.98,2.01-1.96,2.99-2.96.32-.33.64-.66.96-.98,3.86-3.92,7.6-7.95,11.22-12.1l.06-.07c1.04-1.2,2.07-2.41,3.09-3.62.32-.37.64-.75.95-1.12.94-1.13,1.87-2.27,2.8-3.42.37-.46.74-.92,1.11-1.38.91-1.15,1.82-2.3,2.71-3.46.35-.45.7-.9,1.04-1.36.9-1.18,1.79-2.36,2.66-3.55.33-.45.66-.91,1-1.36.88-1.21,1.76-2.44,2.63-3.67.28-.4.55-.8.83-1.2.91-1.3,1.81-2.61,2.7-3.94.15-.23.3-.46.45-.69,4.25-6.39,8.25-12.96,11.97-19.7l.04-.07c.84-1.52,1.66-3.05,2.47-4.59.16-.3.32-.61.48-.91.75-1.44,1.49-2.9,2.22-4.35.19-.39.39-.78.58-1.17.72-1.45,1.42-2.91,2.12-4.38l.52-1.11c.7-1.5,1.39-3.01,2.06-4.52l.42-.97c.69-1.58,1.38-3.16,2.04-4.75l.23-.55c3.73-8.99,7-18.22,9.78-27.65l.13-.43c.5-1.7.98-3.42,1.44-5.14l.25-.93c.44-1.65.87-3.32,1.28-4.98l.27-1.11c.4-1.65.79-3.31,1.16-4.97l.24-1.08c.37-1.7.73-3.41,1.07-5.12l.16-.82c.36-1.81.7-3.63,1.01-5.45H186.2c.32,1.82.66,3.63,1.01,5.44Z"/>
  <path class="cls-4" d="m801.24,489.51v28.13c0,171.72-140.5,312.22-312.22,312.22h-28.13c-171.72,0-312.22-140.5-312.22-312.22V29.62h652.56v459.89Z"/>
  <path class="cls-7" d="m769.58,61.28H180.34l-3.28,468.61c0,154.24,126.31,280.56,280.56,280.56h28.13c154.24,0,280.56-126.31,280.56-280.56l3.28-468.61Z"/>
  <path class="cls-1" d="m764.47,66.35H185.37l-3.25,463.55c0,151.45,124.04,275.48,275.49,275.48h28.13c151.45,0,275.49-124.05,275.49-275.52l3.25-463.52Z"/>
  <path class="cls-2" d="m186.2,577.05c22.55,129.21,136.02,228.33,271.4,228.33h28.13c135.37,0,248.84-99.12,271.4-228.33H186.2Z"/>
  <polygon class="cls-7" points="182.12 437.09 472.53 437.09 762.93 437.09 715.49 390.39 484.42 390.39 472.53 412.31 460.63 390.39 229.56 390.39 182.12 437.09"/>
  <polygon class="cls-3" points="207.21 437.09 216.91 437.09 240.57 413.97 449.91 413.97 468.96 437.09 472.76 437.09 476.57 437.09 495.62 413.97 704.96 413.97 728.62 437.09 738.32 437.09 709.02 407.96 491.23 407.96 472.76 429.01 454.3 407.96 236.5 407.96 207.21 437.09"/>
  <path class="cls-6" d="m186.2,577.05h21.74v-23.33h-24.78c.69,7.87,1.7,15.65,3.03,23.33Z"/>
  <path class="cls-3" d="m185.94,575.47h20.43v-20.16h-23.05c-.1-1.05-.2-2.11-.28-3.17h26.5v26.49h-23.06c-.19-1.05-.36-2.11-.53-3.17Z"/>
  <rect class="cls-8" x="207.95" y="553.72" width="39.45" height="23.33"/>
  <path class="cls-3" d="m247.39,578.63h-41.03v-26.49h42.61v26.49h-1.58Zm-37.86-3.17h36.28v-20.16h-36.28v20.16Z"/>
  <rect class="cls-8" x="247.39" y="553.72" width="39.45" height="23.33"/>
  <path class="cls-3" d="m248.98,575.47h36.28v-20.16h-36.28v20.16h0Zm37.86,3.17h-41.03v-26.49h42.61v26.49h-1.58Z"/>
  <rect class="cls-8" x="365.74" y="553.72" width="39.45" height="23.33"/>
  <path class="cls-3" d="m405.18,578.63h-41.03v-26.49h42.61v26.49h-1.58Zm-37.86-3.17h36.28v-20.16h-36.28v20.16Z"/>
  <rect class="cls-8" x="326.29" y="553.72" width="39.45" height="23.33"/>
  <path class="cls-3" d="m327.87,575.47h36.28v-20.16h-36.28v20.16h0Zm37.86,3.17h-41.03v-26.49h42.61v26.49h-1.58Z"/>
  <rect class="cls-8" x="286.84" y="553.72" width="39.45" height="23.33"/>
  <path class="cls-3" d="m326.29,578.63h-41.03v-26.49h42.61v26.49h-1.58Zm-37.86-3.17h36.28v-20.16h-36.28v20.16Z"/>
  <rect class="cls-8" x="602.42" y="553.72" width="39.45" height="23.33"/>
  <path class="cls-3" d="m641.87,578.63h-41.03v-26.49h42.61v26.49h-1.58Zm-37.86-3.17h36.28v-20.16h-36.28v20.16Z"/>
  <rect class="cls-8" x="562.97" y="553.72" width="39.45" height="23.33"/>
  <path class="cls-3" d="m564.56,575.47h36.28v-20.16h-36.28v20.16h0Zm37.86,3.17h-41.03v-26.49h42.61v26.49h-1.58Z"/>
  <rect class="cls-8" x="523.52" y="553.72" width="39.45" height="23.33"/>
  <path class="cls-3" d="m562.97,578.63h-41.03v-26.49h42.61v26.49h-1.58Zm-37.86-3.17h36.28v-20.16h-36.28v20.16Z"/>
  <rect class="cls-8" x="405.18" y="553.72" width="39.45" height="23.33"/>
  <path class="cls-3" d="m406.77,575.47h36.28v-20.16h-36.28v20.16h0Zm37.86,3.17h-41.03v-26.49h42.61v26.49h-1.58Z"/>
  <rect class="cls-8" x="444.63" y="553.72" width="39.45" height="23.33"/>
  <path class="cls-3" d="m484.08,578.63h-41.03v-26.49h42.61v26.49h-1.58Zm-37.86-3.17h36.28v-20.16h-36.28v20.16Z"/>
  <rect class="cls-8" x="484.08" y="553.72" width="39.45" height="23.33"/>
  <path class="cls-3" d="m485.66,575.47h36.28v-20.16h-36.28v20.16h0Zm37.86,3.17h-41.03v-26.49h42.61v26.49h-1.58Z"/>
  <rect class="cls-8" x="641.87" y="553.72" width="39.45" height="23.33"/>
  <path class="cls-3" d="m643.45,575.47h36.28v-20.16h-36.28v20.16h0Zm37.86,3.17h-41.03v-26.49h42.61v26.49h-1.58Z"/>
  <rect class="cls-8" x="681.31" y="553.72" width="39.45" height="23.33"/>
  <path class="cls-3" d="m720.76,578.63h-41.03v-26.49h42.61v26.49h-1.58Zm-37.86-3.17h36.28v-20.16h-36.28v20.16Z"/>
  <path class="cls-6" d="m720.76,577.05h36.37c1.34-7.67,2.35-15.46,3.04-23.33h-39.41v23.33Z"/>
  <path class="cls-3" d="m722.34,575.47h35.06c-.18,1.06-.34,2.11-.53,3.17h-37.69v-26.49h41.13c-.42,5.15-.98,10.27-1.69,15.34v-12.17h-36.28v20.16Z"/>
  <path class="cls-3" d="m758.62,567.48v-15.34h1.69c-.42,5.15-.99,10.26-1.69,15.34Z"/>
  <rect class="cls-8" x="188.22" y="530.4" width="39.45" height="23.33"/>
  <path class="cls-3" d="m188.22,528.81h41.03v26.49h-42.61v-26.49h1.58Zm37.86,3.17h-36.28v20.16h36.28v-20.16Z"/>
  <rect class="cls-8" x="227.67" y="530.4" width="39.45" height="23.33"/>
  <path class="cls-3" d="m265.53,531.98h-36.28v20.16h36.28v-20.16h0Zm-37.86-3.17h41.03v26.49h-42.61v-26.49h1.58Z"/>
  <rect class="cls-8" x="267.12" y="530.4" width="39.45" height="23.33"/>
  <path class="cls-3" d="m267.12,528.81h41.03v26.49h-42.61v-26.49h1.58Zm37.86,3.17h-36.28v20.16h36.28v-20.16Z"/>
  <rect class="cls-8" x="385.46" y="530.4" width="39.45" height="23.33"/>
  <path class="cls-3" d="m423.32,531.98h-36.28v20.16h36.28v-20.16h0Zm-37.86-3.17h41.03v26.49h-42.61v-26.49h1.58Z"/>
  <rect class="cls-8" x="346.01" y="530.4" width="39.45" height="23.33"/>
  <path class="cls-3" d="m346.01,528.81h41.03v26.49h-42.61v-26.49h1.58Zm37.86,3.17h-36.28v20.16h36.28v-20.16Z"/>
  <rect class="cls-8" x="306.57" y="530.4" width="39.45" height="23.33"/>
  <path class="cls-3" d="m344.43,531.98h-36.28v20.16h36.28v-20.16h0Zm-37.86-3.17h41.03v26.49h-42.61v-26.49h1.58Z"/>
  <rect class="cls-8" x="622.14" y="530.4" width="39.45" height="23.33"/>
  <path class="cls-3" d="m660.01,531.98h-36.28v20.16h36.28v-20.16h0Zm-37.86-3.17h41.03v26.49h-42.61v-26.49h1.58Z"/>
  <rect class="cls-8" x="582.7" y="530.4" width="39.45" height="23.33"/>
  <path class="cls-3" d="m582.7,528.81h41.03v26.49h-42.61v-26.49h1.58Zm37.86,3.17h-36.28v20.16h36.28v-20.16Z"/>
  <rect class="cls-8" x="543.25" y="530.4" width="39.45" height="23.33"/>
  <path class="cls-3" d="m581.11,531.98h-36.28v20.16h36.28v-20.16h0Zm-37.86-3.17h41.03v26.49h-42.61v-26.49h1.58Z"/>
  <rect class="cls-8" x="424.91" y="530.4" width="39.45" height="23.33"/>
  <path class="cls-3" d="m424.91,528.81h41.03v26.49h-42.61v-26.49h1.58Zm37.86,3.17h-36.28v20.16h36.28v-20.16Z"/>
  <rect class="cls-8" x="464.35" y="530.4" width="39.45" height="23.33"/>
  <path class="cls-3" d="m502.22,531.98h-36.28v20.16h36.28v-20.16h0Zm-37.86-3.17h41.03v26.49h-42.61v-26.49h1.58Z"/>
  <rect class="cls-8" x="503.8" y="530.4" width="39.45" height="23.33"/>
  <path class="cls-3" d="m503.8,528.81h41.03v26.49h-42.61v-26.49h1.58Zm37.86,3.17h-36.28v20.16h36.28v-20.16Z"/>
  <rect class="cls-8" x="661.59" y="530.4" width="39.45" height="23.33"/>
  <path class="cls-3" d="m661.59,528.81h41.03v26.49h-42.61v-26.49h1.58Zm37.86,3.17h-36.28v20.16h36.28v-20.16Z"/>
  <rect class="cls-8" x="701.04" y="530.4" width="39.45" height="23.33"/>
  <path class="cls-3" d="m738.9,531.98h-36.28v20.16h36.28v-20.16h0Zm-37.86-3.17h41.03v26.49h-42.61v-26.49h1.58Z"/>
  <path class="cls-6" d="m740.48,530.4h20.73c-.02,7.86-.38,15.63-1.05,23.33h-19.69v-23.33Z"/>
  <path class="cls-3" d="m740.48,528.81h20.75v1.05c0,.71-.03,1.41-.03,2.11h-19.13v20.16h18.24c-.09,1.06-.18,2.11-.28,3.17h-21.13v-26.49h1.58Z"/>
  <path class="cls-6" d="m188.22,530.4h-6.1c.01,7.86.38,15.63,1.05,23.33h5.05v-23.33Z"/>
  <path class="cls-3" d="m186.64,531.98h-4.5c0-.69-.03-1.38-.03-2.08v-1.09h7.69v26.49h-6.5c-.1-1.06-.2-2.11-.28-3.17h3.61v-20.16Z"/>
  <path class="cls-6" d="m182.28,507.07h25.67v23.33h-25.82c0-.17,0-.33,0-.5l.16-22.83Z"/>
  <path class="cls-3" d="m182.29,505.49h27.24v26.49h-27.39c0-.69-.03-1.38-.03-2.08v-1.09h24.25v-20.16h-24.1l.02-3.17Z"/>
  <rect class="cls-8" x="207.95" y="507.07" width="39.45" height="23.33"/>
  <path class="cls-3" d="m245.81,508.65h-36.28v20.16h36.28v-20.16h0Zm-37.86-3.17h41.03v26.49h-42.61v-26.49h1.58Z"/>
  <rect class="cls-8" x="247.39" y="507.07" width="39.45" height="23.33"/>
  <path class="cls-3" d="m247.39,505.49h41.03v26.49h-42.61v-26.49h1.58Zm37.86,3.17h-36.28v20.16h36.28v-20.16Z"/>
  <rect class="cls-8" x="365.74" y="507.07" width="39.45" height="23.33"/>
  <path class="cls-3" d="m403.6,508.65h-36.28v20.16h36.28v-20.16h0Zm-37.86-3.17h41.03v26.49h-42.61v-26.49h1.58Z"/>
  <rect class="cls-8" x="326.29" y="507.07" width="39.45" height="23.33"/>
  <path class="cls-3" d="m326.29,505.49h41.03v26.49h-42.61v-26.49h1.58Zm37.86,3.17h-36.28v20.16h36.28v-20.16Z"/>
  <rect class="cls-8" x="286.84" y="507.07" width="39.45" height="23.33"/>
  <path class="cls-3" d="m324.71,508.65h-36.28v20.16h36.28v-20.16h0Zm-37.86-3.17h41.03v26.49h-42.61v-26.49h1.58Z"/>
  <rect class="cls-8" x="602.42" y="507.07" width="39.45" height="23.33"/>
  <path class="cls-3" d="m640.28,508.65h-36.28v20.16h36.28v-20.16h0Zm-37.86-3.17h41.03v26.49h-42.61v-26.49h1.58Z"/>
  <rect class="cls-8" x="562.97" y="507.07" width="39.45" height="23.33"/>
  <path class="cls-3" d="m562.97,505.49h41.03v26.49h-42.61v-26.49h1.58Zm37.86,3.17h-36.28v20.16h36.28v-20.16Z"/>
  <rect class="cls-8" x="523.52" y="507.07" width="39.45" height="23.33"/>
  <path class="cls-3" d="m561.39,508.65h-36.28v20.16h36.28v-20.16h0Zm-37.86-3.17h41.03v26.49h-42.61v-26.49h1.58Z"/>
  <rect class="cls-8" x="405.18" y="507.07" width="39.45" height="23.33"/>
  <path class="cls-3" d="m405.18,505.49h41.03v26.49h-42.61v-26.49h1.58Zm37.86,3.17h-36.28v20.16h36.28v-20.16Z"/>
  <rect class="cls-8" x="444.63" y="507.07" width="39.45" height="23.33"/>
  <path class="cls-3" d="m482.49,508.65h-36.28v20.16h36.28v-20.16h0Zm-37.86-3.17h41.03v26.49h-42.61v-26.49h1.58Z"/>
  <rect class="cls-8" x="484.08" y="507.07" width="39.45" height="23.33"/>
  <path class="cls-3" d="m484.08,505.49h41.03v26.49h-42.61v-26.49h1.58Zm37.86,3.17h-36.28v20.16h36.28v-20.16Z"/>
  <rect class="cls-8" x="641.87" y="507.07" width="39.45" height="23.33"/>
  <path class="cls-3" d="m641.87,505.49h41.03v26.49h-42.61v-26.49h1.58Zm37.86,3.17h-36.28v20.16h36.28v-20.16Z"/>
  <rect class="cls-8" x="681.31" y="507.07" width="39.45" height="23.33"/>
  <path class="cls-3" d="m719.18,508.65h-36.28v20.16h36.28v-20.16h0Zm-37.86-3.17h41.03v26.49h-42.61v-26.49h1.58Z"/>
  <rect class="cls-8" x="720.76" y="507.07" width="39.45" height="23.33"/>
  <path class="cls-3" d="m720.76,505.49h40.64l-.17,24.38c0,.71-.02,1.41-.03,2.11h-42.02v-26.49h1.58Zm37.86,3.17h-36.28v20.16h36.28v-20.16Z"/>
  <path class="cls-6" d="m761.38,507.07h-1.18v23.33h1.01c0-.18,0-.35,0-.53l.16-22.8Z"/>
  <path class="cls-3" d="m761.2,531.98c0-.71.03-1.41.03-2.11l.17-24.38h-2.77v26.49h2.57Z"/>
  <rect class="cls-8" x="188.22" y="483.74" width="39.45" height="23.33"/>
  <path class="cls-3" d="m189.81,505.49h36.28v-20.16h-36.28v20.16h0Zm37.86,3.17h-41.03v-26.49h42.61v26.49h-1.58Z"/>
  <rect class="cls-8" x="227.67" y="483.74" width="39.45" height="23.33"/>
  <path class="cls-3" d="m267.12,508.65h-41.03v-26.49h42.61v26.49h-1.58Zm-37.86-3.17h36.28v-20.16h-36.28v20.16Z"/>
  <rect class="cls-8" x="267.12" y="483.74" width="39.45" height="23.33"/>
  <path class="cls-3" d="m268.7,505.49h36.28v-20.16h-36.28v20.16h0Zm37.86,3.17h-41.03v-26.49h42.61v26.49h-1.58Z"/>
  <rect class="cls-8" x="385.46" y="483.74" width="39.45" height="23.33"/>
  <path class="cls-3" d="m424.91,508.65h-41.03v-26.49h42.61v26.49h-1.58Zm-37.86-3.17h36.28v-20.16h-36.28v20.16Z"/>
  <rect class="cls-8" x="346.01" y="483.74" width="39.45" height="23.33"/>
  <path class="cls-3" d="m347.59,505.49h36.29v-20.16h-36.29v20.16h0Zm37.87,3.17h-41.02v-1.58s0-23.33,0-23.33v-1.58h42.61v26.49h-1.58Z"/>
  <rect class="cls-8" x="306.57" y="483.74" width="39.45" height="23.33"/>
  <path class="cls-3" d="m346.01,508.65h-41.03v-26.49h42.61v24.91s0,1.58,0,1.58h-1.58Zm-37.86-3.17h36.29v-20.16h-36.29v20.16Z"/>
  <rect class="cls-8" x="622.14" y="483.74" width="39.45" height="23.33"/>
  <path class="cls-3" d="m661.59,508.65h-41.03v-26.49h42.61v26.49h-1.58Zm-37.86-3.17h36.28v-20.16h-36.28v20.16Z"/>
  <rect class="cls-8" x="582.7" y="483.74" width="39.45" height="23.33"/>
  <path class="cls-3" d="m584.28,505.49h36.28v-20.16h-36.28v20.16h0Zm37.86,3.17h-41.03v-26.49h42.61v26.49h-1.58Z"/>
  <rect class="cls-8" x="543.25" y="483.74" width="39.45" height="23.33"/>
  <path class="cls-3" d="m582.7,508.65h-41.03v-26.49h42.61v26.49h-1.58Zm-37.86-3.17h36.28v-20.16h-36.28v20.16Z"/>
  <rect class="cls-8" x="424.91" y="483.74" width="39.45" height="23.33"/>
  <path class="cls-3" d="m426.49,505.49h36.28v-20.16h-36.28v20.16h0Zm37.86,3.17h-41.03v-26.49h42.61v26.49h-1.58Z"/>
  <rect class="cls-8" x="464.35" y="483.74" width="39.45" height="23.33"/>
  <path class="cls-3" d="m503.8,508.65h-41.03v-26.49h42.61v26.49h-1.58Zm-37.86-3.17h36.28v-20.16h-36.28v20.16Z"/>
  <rect class="cls-8" x="503.8" y="483.74" width="39.45" height="23.33"/>
  <path class="cls-3" d="m505.38,505.49h36.28v-20.16h-36.28v20.16h0Zm37.86,3.17h-41.03v-26.49h42.61v26.49h-1.58Z"/>
  <rect class="cls-8" x="661.59" y="483.74" width="39.45" height="23.33"/>
  <path class="cls-3" d="m663.17,505.49h36.28v-20.16h-36.28v20.16h0Zm37.86,3.17h-41.03v-26.49h42.61v26.49h-1.58Z"/>
  <rect class="cls-8" x="701.04" y="483.74" width="39.45" height="23.33"/>
  <path class="cls-3" d="m740.48,508.65h-41.03v-26.49h42.61v26.49h-1.58Zm-37.86-3.17h36.28v-20.16h-36.28v20.16Z"/>
  <polygon class="cls-6" points="740.48 507.07 761.38 507.07 761.55 483.74 740.48 483.74 740.48 507.07"/>
  <polygon class="cls-3" points="742.07 505.49 761.4 505.49 761.37 508.65 740.48 508.65 738.9 508.65 738.9 507.07 738.9 483.74 738.9 482.16 740.48 482.16 761.56 482.16 761.54 485.33 742.07 485.33 742.07 505.49"/>
  <polygon class="cls-6" points="188.22 507.07 182.28 507.07 182.44 483.74 188.22 483.74 188.22 507.07"/>
  <polygon class="cls-3" points="188.22 508.65 182.27 508.65 182.29 505.49 186.64 505.49 186.64 485.33 182.43 485.33 182.45 482.16 188.22 482.16 189.81 482.16 189.81 483.74 189.81 507.07 189.81 508.65 188.22 508.65"/>
  <polygon class="cls-6" points="182.44 483.74 207.95 483.74 207.95 460.42 182.61 460.42 182.44 483.74"/>
  <polygon class="cls-3" points="182.45 482.16 206.36 482.16 206.36 462 182.59 462 182.62 458.84 207.95 458.84 209.53 458.84 209.53 460.42 209.53 483.74 209.53 485.33 207.95 485.33 182.43 485.33 182.45 482.16"/>
  <rect class="cls-8" x="207.95" y="460.42" width="39.45" height="23.33"/>
  <path class="cls-3" d="m247.39,485.33h-41.03v-26.49h42.61v26.49h-1.58Zm-37.86-3.17h36.28v-20.16h-36.28v20.16Z"/>
  <rect class="cls-8" x="247.39" y="460.42" width="39.45" height="23.33"/>
  <path class="cls-3" d="m248.98,482.16h36.28v-20.16h-36.28v20.16h0Zm37.86,3.17h-41.03v-26.49h42.61v26.49h-1.58Z"/>
  <rect class="cls-8" x="365.74" y="460.42" width="39.45" height="23.33"/>
  <path class="cls-3" d="m405.18,485.33h-41.03v-26.49h42.61v26.49h-1.58Zm-37.86-3.17h36.28v-20.16h-36.28v20.16Z"/>
  <rect class="cls-8" x="326.29" y="460.42" width="39.45" height="23.33"/>
  <path class="cls-3" d="m327.87,482.16h36.28v-20.16h-36.28v20.16h0Zm37.86,3.17h-41.03v-26.49h42.61v26.49h-1.58Z"/>
  <rect class="cls-8" x="286.84" y="460.42" width="39.45" height="23.33"/>
  <path class="cls-3" d="m326.29,485.33h-41.03v-26.49h42.61v26.49h-1.58Zm-37.86-3.17h36.28v-20.16h-36.28v20.16Z"/>
  <rect class="cls-8" x="602.42" y="460.42" width="39.45" height="23.33"/>
  <path class="cls-3" d="m641.87,485.33h-41.03v-26.49h42.61v26.49h-1.58Zm-37.86-3.17h36.28v-20.16h-36.28v20.16Z"/>
  <rect class="cls-8" x="562.97" y="460.42" width="39.45" height="23.33"/>
  <path class="cls-3" d="m564.56,482.16h36.28v-20.16h-36.28v20.16h0Zm37.86,3.17h-41.03v-26.49h42.61v26.49h-1.58Z"/>
  <rect class="cls-8" x="523.52" y="460.42" width="39.45" height="23.33"/>
  <path class="cls-3" d="m562.97,485.33h-41.03v-26.49h42.61v26.49h-1.58Zm-37.86-3.17h36.28v-20.16h-36.28v20.16Z"/>
  <rect class="cls-8" x="405.18" y="460.42" width="39.45" height="23.33"/>
  <path class="cls-3" d="m406.77,482.16h36.28v-20.16h-36.28v20.16h0Zm37.86,3.17h-41.03v-26.49h42.61v26.49h-1.58Z"/>
  <rect class="cls-8" x="444.63" y="460.42" width="39.45" height="23.33"/>
  <path class="cls-3" d="m484.08,485.33h-41.03v-26.49h42.61v26.49h-1.58Zm-37.86-3.17h36.28v-20.16h-36.28v20.16Z"/>
  <rect class="cls-8" x="484.08" y="460.42" width="39.45" height="23.33"/>
  <path class="cls-3" d="m485.66,482.16h36.28v-20.16h-36.28v20.16h0Zm37.86,3.17h-41.03v-26.49h42.61v26.49h-1.58Z"/>
  <rect class="cls-8" x="641.87" y="460.42" width="39.45" height="23.33"/>
  <path class="cls-3" d="m643.45,482.16h36.28v-20.16h-36.28v20.16h0Zm37.86,3.17h-41.03v-26.49h42.61v26.49h-1.58Z"/>
  <rect class="cls-8" x="681.31" y="460.42" width="39.45" height="23.33"/>
  <path class="cls-3" d="m720.76,485.33h-41.03v-26.49h42.61v26.49h-1.58Zm-37.86-3.17h36.28v-20.16h-36.28v20.16Z"/>
  <rect class="cls-8" x="720.76" y="460.42" width="39.45" height="23.33"/>
  <path class="cls-3" d="m722.34,482.16h36.28v-20.16h-36.28v20.16h0Zm39.19,3.17h-42.36v-26.49h42.54l-.19,26.49Z"/>
  <polygon class="cls-6" points="761.55 483.74 760.21 483.74 760.21 460.42 761.71 460.42 761.55 483.74"/>
  <polygon class="cls-3" points="761.54 485.33 760.21 485.33 758.62 485.33 758.62 483.74 758.62 460.42 758.62 458.84 760.21 458.84 761.72 458.84 761.54 485.33"/>
  <rect class="cls-8" x="188.22" y="437.09" width="39.45" height="23.33"/>
  <path class="cls-3" d="m188.22,435.51h41.03v26.49h-42.61v-26.49h1.58Zm37.86,3.17h-36.28v20.16h36.28v-20.16Z"/>
  <rect class="cls-8" x="227.67" y="437.09" width="39.45" height="23.33"/>
  <path class="cls-3" d="m265.53,438.68h-36.28v20.16h36.28v-20.16h0Zm-37.86-3.17h41.03v26.49h-42.61v-26.49h1.58Z"/>
  <rect class="cls-8" x="267.12" y="437.09" width="39.45" height="23.33"/>
  <path class="cls-3" d="m267.12,435.51h41.03v26.49h-42.61v-26.49h1.58Zm37.86,3.17h-36.28v20.16h36.28v-20.16Z"/>
  <rect class="cls-8" x="385.46" y="437.09" width="39.45" height="23.33"/>
  <path class="cls-3" d="m423.32,438.68h-36.28v20.16h36.28v-20.16h0Zm-37.86-3.17h41.03v26.49h-42.61v-26.49h1.58Z"/>
  <rect class="cls-8" x="346.01" y="437.09" width="39.45" height="23.33"/>
  <path class="cls-3" d="m346.01,435.51h41.03v26.49h-42.61v-26.49h1.58Zm37.86,3.17h-36.28v20.16h36.28v-20.16Z"/>
  <rect class="cls-8" x="306.57" y="437.09" width="39.45" height="23.33"/>
  <path class="cls-3" d="m344.43,438.68h-36.28v20.16h36.28v-20.16h0Zm-37.86-3.17h41.03v26.49h-42.61v-26.49h1.58Z"/>
  <rect class="cls-8" x="622.14" y="437.09" width="39.45" height="23.33"/>
  <path class="cls-3" d="m660.01,438.68h-36.28v20.16h36.28v-20.16h0Zm-37.86-3.17h41.03v26.49h-42.61v-26.49h1.58Z"/>
  <rect class="cls-8" x="582.7" y="437.09" width="39.45" height="23.33"/>
  <path class="cls-3" d="m582.7,435.51h41.03v26.49h-42.61v-26.49h1.58Zm37.86,3.17h-36.28v20.16h36.28v-20.16Z"/>
  <rect class="cls-8" x="543.25" y="437.09" width="39.45" height="23.33"/>
  <path class="cls-3" d="m581.11,438.68h-36.28v20.16h36.28v-20.16h0Zm-37.86-3.17h41.03v26.49h-42.61v-26.49h1.58Z"/>
  <rect class="cls-8" x="424.91" y="437.09" width="39.45" height="23.33"/>
  <path class="cls-3" d="m424.91,435.51h41.03v26.49h-42.61v-26.49h1.58Zm37.86,3.17h-36.28v20.16h36.28v-20.16Z"/>
  <rect class="cls-8" x="464.35" y="437.09" width="39.45" height="23.33"/>
  <path class="cls-3" d="m502.22,438.68h-36.28v20.16h36.28v-20.16h0Zm-37.86-3.17h41.03v26.49h-42.61v-26.49h1.58Z"/>
  <rect class="cls-8" x="503.8" y="437.09" width="39.45" height="23.33"/>
  <path class="cls-3" d="m503.8,435.51h41.03v26.49h-42.61v-26.49h1.58Zm37.86,3.17h-36.28v20.16h36.28v-20.16Z"/>
  <rect class="cls-8" x="661.59" y="437.09" width="39.45" height="23.33"/>
  <path class="cls-3" d="m661.59,435.51h41.03v26.49h-42.61v-26.49h1.58Zm37.86,3.17h-36.28v20.16h36.28v-20.16Z"/>
  <rect class="cls-8" x="701.04" y="437.09" width="39.45" height="23.33"/>
  <path class="cls-3" d="m738.9,438.68h-36.28v20.16h36.28v-20.16h0Zm-37.86-3.17h41.03v26.49h-42.61v-26.49h1.58Z"/>
  <polygon class="cls-6" points="740.48 437.09 761.88 437.09 761.71 460.42 740.48 460.42 740.48 437.09"/>
  <polygon class="cls-3" points="740.48 435.51 761.89 435.51 761.86 438.68 742.07 438.68 742.07 458.84 761.72 458.84 761.7 462 740.48 462 738.9 462 738.9 460.42 738.9 437.09 738.9 435.51 740.48 435.51"/>
  <polygon class="cls-6" points="188.22 437.09 182.77 437.09 182.61 460.42 188.22 460.42 188.22 437.09"/>
  <polygon class="cls-3" points="186.64 438.68 182.76 438.68 182.78 435.51 188.22 435.51 189.81 435.51 189.81 437.09 189.81 460.42 189.81 462 188.22 462 182.59 462 182.62 458.84 186.64 458.84 186.64 438.68"/>
  <polygon class="cls-6" points="720.76 483.74 761.55 483.74 761.71 460.42 720.76 460.42 720.76 483.74"/>
  <path class="cls-3" d="m722.34,482.16h39.22v-20.16h-39.22v20.16h0Zm37.86,3.17h-41.03v-26.49h42.54l-.19,26.49h-1.33Z"/>
  <path class="cls-7" d="m502.72,90.04v230.28l-4.68-7.47c-1.77-2.82-8.09-1.69-10.94-6.66-3.31-5.79-6.36-11.72-9.15-17.78-8.38-18.2-14.48-37.6-18.09-57.31-3.43-18.71-4.69-38.08-3.07-57.05,2.74-32.23,14.39-66.77,41.95-86.08l3.99-2.79v4.87Z"/>
  <path class="cls-3" d="m500.19,90.04c-52.94,37.1-53.89,139.8-10.88,214.89,2.29,4,8.36,2.55,10.88,6.58V90.04Z"/>
  <path class="cls-7" d="m502.72,299.25c-.95,38.49,14.47,65.02-15.12,75.35-9.15,3.19-20.94,2.08-26.38-3.45-9.71-11.51,2.89-22.2,12.23-19.5,18.63,5.38,7.7-6.14,4.04-13.8-5.72-11.98-2.92-24.19,6.94-38.25,7.01-.14,11.28-.21,18.29-.34Z"/>
  <path class="cls-7" d="m562.2,369.61c-9.47,3.86-18.97,7.38-28.36,10.61l-3.78,1.3-2.14-3.38c-2.63-4.15-5.26-8.31-7.89-12.46l-3.54-5.58,6.31-1.96c2.83-.88,5.76-1.81,8.78-2.8l12.75-21.28c-.15-10.05.83-20.25,5.42-29.27,5.14-10.1,15.02-19.07,23.02-26.98l6.52-6.45,1.98,8.96c.93,4.22,1.66,8.31,2.13,12.27,3.71-8.7,10.64-16.91,16.32-24.2l5.64-7.24,3.12,8.63c1.41,3.91,2.59,7.72,3.49,11.42,1.96-8.87,6.7-17.88,10.5-25.83l3.96-8.27,4.89,7.76c.68,1.08,1.34,2.16,1.98,3.24-.44-9,1.15-18.71,2.24-27.24l1.17-9.1,7.08,5.83c1.1.91,2.21,1.84,3.3,2.8-1.51-2.84-2.8-5.79-4.06-8.75-1.99-4.7-3.93-9.4-6.07-14.04l-5.32-11.5,11.78,4.66c1.31.52,2.62,1.05,3.94,1.61-.94-.69-1.86-1.41-2.75-2.18-3.21-2.75-6.05-5.88-8.83-9.04-3.38-3.84-6.69-7.68-10.19-11.41l-8.67-9.23,6.38.36c-2.29-1.21-4.51-2.56-6.71-3.94-3.94-2.46-7.84-4.94-11.86-7.28l-10.96-6.35,12.32-2.96c7.12-1.71,14.71-3.06,22.09-3.31-10.8-.71-21.81-2.24-31.19-7.92-3.31-2-6.34-4.4-9.34-6.84-3.6-2.94-7.15-5.9-10.85-8.72l-10.07-7.69,12.59-1.38c3.55-.39,7.21-.68,10.88-.79-2.25-1.17-4.43-2.48-6.52-3.98-3.95-2.83-7.53-6.12-11.04-9.47-4.3-4.09-8.53-8.2-12.96-12.15l-9.46-8.43,12.66-.41c21.44-.7,45.78,1.57,59.52,16.58-1.22-3.89-2.21-7.87-3.11-11.87l-1.62-7.2,7.3,1.08c27.36,4.05,41.36,21.16,43.63,44.92h.1c.39-3.77.91-7.53,1.43-11.23l1.14-8.19,6.78,4.73c18.18,12.69,23.56,32.23,18.85,51.23,1.71-4.34,3.67-8.59,5.6-12.78l3.46-7.51,5.12,6.49c11.42,14.49,12.74,31.01,6.8,45.74,1.15-1.32,2.3-2.63,3.45-3.94l5.47-6.21,3.05,7.69c3.77,9.51,4.64,19.68,1.85,29.57-4.07,14.45-14.96,25.23-28.05,31.82l-6.61,6.9c1.3-.94,2.67-1.82,4.13-2.64,3.8-2.14,7.84-3.77,11.88-5.4,4.48-1.82,8.87-3.65,13.18-5.88l7.35-3.8.05,8.27c.11,20.31-11.2,33.2-27,39.65,5.04-.72,10.02-1.52,15-2.7l8.05-1.89-1.97,8.03c-2.64,10.77-8.09,20.26-16.92,27.12-3.02,2.34-6.25,4.25-9.63,5.77l2.42.03-3.85,7.32c-5.16,9.82-12.73,17.72-22.96,22.24-5.49,2.43-11.23,3.68-17.04,4.01l-5.36,5.8c-15.39,16.63-43.63,20.78-66.31,14.45l-.13.42-25.7-8.25h0Zm-6.31-22.86c6.44-2.45,13.04-5.11,19.69-7.99l4.11-14.8c-4.09,8.61-11.33,15.72-22.72,20.98l-1.09,1.82h0Zm103.31-35.25c.99-1.18,1.99-2.34,3.02-3.46-1.19,1.19-2.4,2.36-3.63,3.51l.61-.05h0Zm13.26-14.61c-2.03,2.43-4.14,4.8-6.32,7.11,3.32-3.18,6.89-6.01,10.84-8.36l-4.52,1.25h0Zm.25-83.64c-3.11-.8-6.21-1.7-9.24-2.76,7.36,4.54,13.84,10.02,18.13,16.74,0-2.25-.1-4.5-.29-6.73l-8.6-7.25h0Zm-4.34,39.21c-1.75-1.18-3.46-2.41-5.13-3.7,2.62,4.37,4.58,9.09,5.51,14.16.38,2.1.58,4.17.6,6.22.62-1.01,1.22-2.03,1.8-3.06l-2.78-13.62h0Zm-53.08,57.85c-.75-2.05-1.45-4.12-2.04-6.21-1.83,9.75-7.36,18.25-17.97,25.22l-.08.28c6.47-3.26,12.87-6.73,19.09-10.44l1.01-8.85h0Zm33.42-18.39c-1.92-2.31-3.79-4.69-5.52-7.16.51,5.31-.04,10.5-1.87,15.58,2.55-2.1,5.02-4.26,7.39-6.47v-1.95Z"/>
  <path class="cls-4" d="m576.33,281.4c-19.99,19.76-27.52,26.34-26.89,53.97l-14.48,24.16c-3.5,1.16-7.04,2.31-10.66,3.43,2.63,4.15,5.26,8.31,7.89,12.46,10.3-3.54,20.22-7.28,29.75-11.22l22.68,7.28.13-.42c21.36,7.73,50.65,4.94,65.87-11.52-27.03-4.55-40.41-13.24-71.43,3.57l-8.36-2.68c11.35-4.96,22.1-10.2,32.14-15.72l27.58,1.95c26.59,10.8,51.84,6.33,64.67-18.08-27.33-.34-38.47-9.26-66.02,11.65l-16.37-1.16c7.7-4.58,14.94-9.32,21.68-14.23l29.37-2.28c28.63,4.26,52.28-6.13,58.88-33.07-26.5,6.23-39.46.34-61,26.89l-18.05,1.4c9.97-8.06,18.62-16.52,25.83-25.34l20.37-5.62-.1-.35c22.89-3.08,38.85-16.3,38.73-38.83-20.3,10.49-32.09,8.4-44.19,34.17l-8.54,2.36c5.96-8.56,10.57-17.43,13.72-26.59l11.07-11.56c22.89-11.12,33.4-33.01,24.54-55.38-14.29,16.23-18.83,22.31-24.93,46.66l-7.3,7.62c1.11-5.82,1.64-11.74,1.55-17.77l8.5-21.92c15.67-16.86,18.07-38.96,4.14-56.61-9.43,20.48-11.86,27.36-10.35,55.16l-3.6,9.29c-1.17-6.85-3.12-13.81-5.89-20.88l2.34-26.73c8.19-20.13,3.4-40.79-14.46-53.25-3.31,23.89-3.55,31.05,7.45,60.71l-.66,7.47c-1.91-3.72-15.5-24.31-14.84-24.37l-2.43-27.85-.82.07c-.5-24.03-12.71-41.42-39.62-45.41,5.66,25.24,11.97,33.38,34.63,51.54l1.18,13.53-.23-.1c-9.08-10.78-20.03-21.74-33.01-32.85-6.85-27.57-36.25-31.56-63.75-30.66,22.31,19.89,23.84,28.01,59.87,33.25,9.4,8.52,17.75,16.96,25.05,25.29l-18.21-7.62c-8.66-16.89-30.03-17.88-49.88-15.71,18.84,14.38,20.37,20.63,49.75,22.51l26.99,11.3c5,6.42,9.37,12.79,13.12,19.08l-9.2-4.87c-9.97-18.85-32.69-17.22-53.27-12.28,19.31,11.19,22.48,17.17,47.33,16.28l20.62,10.92c4.35,8.79,7.44,17.42,9.3,25.89l-3.12-2.63c-4.68-22.74-29-28.16-52.11-29.46,17.02,18.12,18.27,25.36,45.75,32.36l11.08,9.34c1.51,13.57-.23,26.68-5.18,39.25l-.65-3.2.62.37c6.28-25.94-16.44-39.87-39.34-48.93,10.15,21.96,9.39,29.42,31.34,43.92l3.56,17.46c-4.18,7.8-9.64,15.38-16.36,22.71v-2.79c10.16-21.67,1.1-38.26-19.53-55.26-3.53,27.56-5.34,36.71,13.19,58.58v5.94c-7.9,7.59-17.2,14.89-27.88,21.89l.5-4.45c17.18-16.58,14.32-34.24.66-55.9-10.62,22.19-14.95,30-6.54,52.25h-.07s-1.42,12.45-1.42,12.45c-9.57,5.84-20.16,11.44-31.72,16.82l3.6-12.97c20.54-12.53,21.56-30.44,12.81-54.6-14.89,19.12-20.84,25.91-17.7,48.61l-6.21,22.35c-11.04,4.86-22.91,9.51-35.61,13.95l12.52-16.96c25.35-10.99,25.93-29.47,19.61-58.03Z"/>
  <path class="cls-7" d="m370.76,91.11c3.55,3.1,5.53,7.67,5.31,12.46-.4,8.6-7.7,15.25-16.3,14.86-3.75-.17-7.27-1.68-9.98-4.23-.08,0-.16,0-.24,0-8.29-.38-14.77-7.18-14.87-15.38-2.13-2.88-3.2-6.39-3.04-9.99.4-8.6,7.7-15.25,16.3-14.86,1.88.09,3.72.51,5.44,1.25,1.84-.83,3.84-1.21,5.87-1.12,7.07.33,12.54,6.33,12.21,13.4-.06,1.24-.29,2.46-.7,3.63Z"/>
  <path class="cls-3" d="m369.25,87.38c-.07,1.6-.5,3.1-1.2,4.43,3.69,2.53,6.03,6.86,5.81,11.66-.34,7.38-6.6,13.09-13.98,12.75-3.63-.17-6.86-1.77-9.16-4.24-.35.01-.7,0-1.06,0-7.36-.34-13.05-6.57-12.75-13.92-2.04-2.47-3.21-5.68-3.05-9.14.34-7.38,6.6-13.09,13.98-12.75,2.01.09,3.9.63,5.57,1.5,1.69-.96,3.65-1.47,5.73-1.37,5.85.27,10.37,5.23,10.1,11.08Z"/>
  <path class="cls-7" d="m340.3,95.51c.96.51,1.8,1.15,2.63,1.93.55.52,1.3,1.39,1.93,1.77.35.21.69.25,1.09.21l2.46-.22-.05,2.47c-.06,2.81,2.7,3.8,3.45,6.78,1.89.39,3.53,1.26,5.19,2.44,1.3.93,2.87,2.34,4.34,2.92.22.09.46.16.69.21l6.78,1.42-6.34,2.77c-7.13,3.12-20.36-1.16-28.69.19l-2.45.4-.11-2.48c-.03-.75-.08-1.49-.13-2.23-.63-8.52-3.37-20.49.57-28.35.34-.67.72-1.31,1.14-1.92l3.51-5.04.51,6.12c.12,1.46,1.05,3.4,1.64,4.74.79,1.81,1.68,3.84,1.86,5.88Z"/>
  <path class="cls-5" d="m334.61,85.07c.31,3.65,3.99,8.32,3.47,11.87,4.21,1.46,4.45,5,8.08,4.68-.09,4.54,3.9,5.01,3.62,8.81,5.42.12,7.78,4.91,11.81,5.75-6.15,2.69-19.69-1.33-28.16.03-.52-11.73-4.07-23.59,1.18-31.14Z"/>
  <path class="cls-7" d="m341.97,117.18c4.01,3.03,6.47,7.74,6.59,12.86.23,9.18-7.04,16.81-16.22,17.04-4,.1-7.86-1.23-10.94-3.75-.09,0-.17,0-.26,0-8.85.22-16.26-6.52-16.99-15.24-2.49-2.9-3.89-6.56-3.99-10.4-.23-9.18,7.04-16.81,16.22-17.04,2.01-.05,3.99.26,5.88.92,1.89-1.02,3.99-1.58,6.16-1.64,7.55-.19,13.82,5.79,14.01,13.33.03,1.33-.13,2.64-.47,3.91Z"/>
  <path class="cls-3" d="m340.08,113.33c.04,1.71-.3,3.33-.94,4.8,4.12,2.42,6.94,6.84,7.06,11.97.19,7.88-6.04,14.43-13.92,14.62-3.88.1-7.43-1.37-10.07-3.82-.37.04-.75.06-1.13.07-7.86.19-14.39-6-14.62-13.85-2.36-2.48-3.85-5.81-3.94-9.49-.19-7.88,6.04-14.43,13.92-14.62,2.15-.05,4.2.37,6.04,1.18,1.72-1.15,3.78-1.84,6-1.9,6.25-.15,11.43,4.79,11.59,11.03Z"/>
  <path class="cls-7" d="m309.89,124.16c1.06.47,2,1.08,2.95,1.86.62.51,1.48,1.38,2.19,1.74.39.2.75.21,1.18.14l2.6-.42.13,2.63c.15,2.99,3.16,3.84,4.18,6.96,2.04.27,3.86,1.07,5.71,2.21,1.45.89,3.23,2.28,4.84,2.78.25.08.5.14.75.17l7.32,1-6.54,3.43c-7.35,3.86-21.75.31-30.52,2.36l-2.58.61-.3-2.63c-.09-.79-.2-1.58-.31-2.37-1.31-9.02-5.13-21.54-1.53-30.21.31-.74.66-1.45,1.07-2.13l3.35-5.63,1.01,6.47c.24,1.54,1.37,3.54,2.1,4.92.98,1.87,2.08,3.96,2.42,6.11Z"/>
  <path class="cls-5" d="m303.04,113.49c.6,3.86,4.88,8.55,4.59,12.37,4.59,1.24,5.11,4.98,8.95,4.37.24,4.84,4.52,5.03,4.51,9.11,5.78-.28,8.65,4.63,13.01,5.23-6.34,3.33-21.06.07-29.96,2.16-1.44-12.45-6.11-24.8-1.09-33.23Z"/>
  <path class="cls-7" d="m317.66,146.5c5.04,1.96,8.97,6.11,10.6,11.36,2.93,9.43-2.34,19.47-11.77,22.4-4.11,1.28-8.5,1.03-12.42-.67-.09.03-.18.06-.27.09-9.09,2.83-18.75-1.97-22.06-10.78-3.43-2.27-5.96-5.64-7.18-9.59-2.93-9.43,2.34-19.47,11.77-22.4,2.06-.64,4.21-.91,6.35-.78,1.66-1.61,3.67-2.81,5.89-3.5,7.76-2.41,16,1.92,18.41,9.68.42,1.36.65,2.77.67,4.19Z"/>
  <path class="cls-3" d="m314.57,143.07c.55,1.75.67,3.54.44,5.24,4.97,1.29,9.19,5.04,10.83,10.31,2.52,8.1-2.01,16.7-10.1,19.22-3.99,1.24-8.09.77-11.54-.99-.37.15-.76.29-1.15.41-8.07,2.51-16.65-1.98-19.2-10.03-3.17-1.87-5.69-4.88-6.87-8.67-2.52-8.1,2.01-16.7,10.1-19.22,2.21-.69,4.45-.85,6.6-.56,1.44-1.7,3.37-3.02,5.65-3.72,6.42-2,13.24,1.59,15.24,8.01Z"/>
  <path class="cls-7" d="m286.52,163.16c1.23.17,2.39.53,3.59,1.05.8.35,1.94.99,2.77,1.15.46.09.84,0,1.26-.2l2.57-1.19.91,2.68c1.04,3.05,4.4,3.04,6.37,5.97,2.19-.32,4.31-.02,6.55.6,1.77.49,4.01,1.41,5.83,1.45.28,0,.55,0,.83-.04l7.87-1.12-5.76,5.47c-6.47,6.15-22.42,6.71-30.89,11.42l-2.49,1.38-1.09-2.63c-.33-.79-.67-1.58-1.02-2.36-4.01-8.95-11.65-20.78-10.47-30.81.1-.85.26-1.7.48-2.52l1.81-6.81,2.95,6.4c.7,1.52,2.46,3.26,3.62,4.48,1.56,1.64,3.31,3.49,4.3,5.61Z"/>
  <path class="cls-5" d="m276.29,154.13c1.76,3.82,7.56,7.42,8.38,11.45,5.12-.07,6.75,3.65,10.54,1.89,1.68,4.93,6.16,3.88,7.35,8.1,5.9-1.99,10.32,2.25,14.99,1.58-5.59,5.31-21.77,6.26-30.37,11.04-5.15-12.46-13.62-23.86-10.9-34.06Z"/>
  <path class="cls-7" d="m299.53,189.2c5.55,1.3,10.27,5.04,12.75,10.28,4.46,9.41.45,20.66-8.96,25.12-4.1,1.94-8.71,2.34-13.06,1.15-.09.04-.18.09-.27.13-9.07,4.3-19.85.73-24.61-7.97-3.91-1.86-7.05-5-8.92-8.94-4.46-9.41-.45-20.66,8.96-25.12,2.06-.97,4.26-1.57,6.51-1.76,1.49-1.93,3.41-3.48,5.63-4.53,7.73-3.67,16.98-.37,20.65,7.37.64,1.36,1.09,2.8,1.31,4.27Z"/>
  <path class="cls-3" d="m295.8,186.07c.83,1.75,1.23,3.59,1.24,5.41,5.38.61,10.34,3.9,12.83,9.15,3.83,8.07.38,17.73-7.69,21.55-3.97,1.88-8.33,2.01-12.19.68-.37.21-.75.41-1.14.59-8.05,3.82-17.67.4-21.52-7.62-3.59-1.48-6.66-4.24-8.45-8.02-3.83-8.07-.38-17.73,7.69-21.55,2.2-1.04,4.52-1.55,6.8-1.56,1.25-1.98,3.06-3.65,5.34-4.72,6.4-3.03,14.05-.3,17.08,6.09Z"/>
  <path class="cls-7" d="m269.51,211.2c1.31,0,2.57.2,3.91.57.88.24,2.17.75,3.06.79.5.03.87-.13,1.29-.4l2.5-1.63,1.35,2.66c1.54,3.03,5.04,2.52,7.53,5.28,2.23-.66,4.49-.66,6.93-.34,1.92.25,4.4.87,6.3.65.29-.03.58-.09.86-.17l8.04-2.33-5.2,6.56c-5.84,7.38-22.39,10.33-30.53,16.5l-2.39,1.81-1.53-2.59c-.46-.78-.93-1.55-1.41-2.31-5.52-8.74-15.24-19.96-15.49-30.59-.02-.9.02-1.81.13-2.7l.88-7.37,4.02,6.24c.96,1.48,3.05,3.04,4.44,4.13,1.87,1.48,3.97,3.15,5.32,5.22Z"/>
  <path class="cls-5" d="m257.5,203.29c2.4,3.73,8.99,6.62,10.44,10.71,5.33-.83,7.59,2.81,11.28.4,2.48,4.9,7,3.13,8.87,7.36,5.86-2.95,11.1.82,15.88-.57-5.04,6.37-21.78,9.76-30.05,16.03-7.22-12.23-17.75-22.88-16.42-33.92Z"/>
  <path class="cls-7" d="m298.02,230.5c5.58-1.18,11.44.2,15.91,3.89,8.04,6.62,9.18,18.51,2.56,26.55-2.89,3.5-6.89,5.82-11.33,6.59-.06.08-.12.15-.19.23-6.38,7.74-17.66,9.09-25.67,3.24-4.33-.02-8.51-1.53-11.87-4.3-8.04-6.62-9.18-18.51-2.56-26.55,1.45-1.75,3.19-3.23,5.15-4.36.53-2.38,1.61-4.6,3.17-6.49,5.44-6.6,15.22-7.55,21.82-2.1,1.16.96,2.17,2.07,3.01,3.31Z"/>
  <path class="cls-3" d="m293.31,229.26c1.49,1.23,2.64,2.73,3.42,4.37,5.13-1.74,11.01-.86,15.5,2.83,6.9,5.68,7.88,15.88,2.2,22.78-2.8,3.39-6.69,5.36-10.74,5.79-.24.35-.5.69-.78,1.02-5.67,6.87-15.82,7.87-22.71,2.25-3.88.18-7.83-1.01-11.06-3.68-6.9-5.68-7.88-15.88-2.2-22.78,1.55-1.88,3.43-3.32,5.49-4.3.29-2.33,1.23-4.6,2.83-6.55,4.5-5.47,12.59-6.24,18.05-1.74Z"/>
  <path class="cls-7" d="m280.18,263.17c1.18-.56,2.42-.91,3.78-1.15.9-.15,2.28-.25,3.11-.58.46-.19.73-.49,1-.91l1.57-2.53,2.35,1.84c2.68,2.09,5.63.14,9.06,1.58,1.74-1.54,3.78-2.51,6.13-3.25,1.84-.58,4.35-1.08,5.98-2.08.25-.15.49-.33.71-.52l6.29-5.53-1.91,8.15c-2.15,9.16-15.88,18.86-20.63,27.9l-1.4,2.66-2.48-1.69c-.75-.51-1.5-1-2.26-1.49-8.71-5.57-22.27-11.59-27.02-21.11-.4-.81-.75-1.64-1.03-2.5l-2.33-7.05,6.29,3.94c1.5.94,4.05,1.45,5.78,1.86,2.32.55,4.94,1.16,7.03,2.47Z"/>
  <path class="cls-5" d="m265.95,261.12c3.76,2.35,10.95,2.17,14,5.25,4.47-3.02,8.06-.68,10.38-4.43,4.33,3.38,7.67-.14,11.15,2.89,4.05-5.16,10.39-3.97,14.13-7.26-1.86,7.91-15.57,18.09-20.39,27.27-11.74-8-25.78-13.17-29.28-23.73Z"/>
  <path class="cls-7" d="m311.17,271.14c5.07-3.04,11.27-3.65,16.9-1.54,10.1,3.78,15.23,15.05,11.45,25.15-1.65,4.4-4.8,8.03-8.89,10.27-.03.1-.07.19-.11.29-3.65,9.74-14.25,14.86-24.06,11.82-4.25,1.44-8.85,1.36-13.08-.22-10.1-3.78-15.23-15.05-11.45-25.15.83-2.21,2.04-4.24,3.58-6-.28-2.51.03-5.05.92-7.43,3.11-8.31,12.37-12.52,20.67-9.41,1.46.55,2.83,1.3,4.06,2.23Z"/>
  <path class="cls-3" d="m306.13,271.5c1.88.7,3.5,1.79,4.82,3.13,4.44-3.43,10.5-4.55,16.14-2.44,8.67,3.25,13.07,12.91,9.82,21.58-1.6,4.27-4.75,7.5-8.58,9.3-.12.42-.26.84-.42,1.26-3.24,8.64-12.85,13.04-21.5,9.85-3.74,1.49-8.01,1.64-12.07.12-8.67-3.25-13.07-12.91-9.82-21.58.88-2.36,2.25-4.41,3.93-6.07-.5-2.38-.35-4.92.57-7.37,2.57-6.87,10.23-10.36,17.11-7.79Z"/>
  <path class="cls-7" d="m304.69,309.15c.97-.95,2.06-1.71,3.31-2.39.83-.45,2.16-1.01,2.85-1.62.39-.34.56-.72.67-1.22l.69-3.01,2.92,1.01c3.33,1.15,5.57-1.76,9.42-1.5,1.19-2.1,2.86-3.73,4.91-5.25,1.61-1.19,3.9-2.52,5.16-4.06.19-.23.37-.48.52-.75l4.3-7.54.87,8.63c.98,9.7-9.21,23.83-10.82,34.29l-.47,3.08-3-.82c-.9-.25-1.81-.48-2.72-.7-10.41-2.53-25.73-3.86-33.59-11.59-.67-.66-1.29-1.36-1.86-2.1l-4.66-6.12,7.49,1.74c1.78.41,4.46.06,6.29-.13,2.46-.25,5.23-.52,7.72.05Z"/>
  <path class="cls-5" d="m290.06,311.93c4.47,1.04,11.46-1.56,15.49.43,3.36-4.46,7.67-3.38,8.68-7.83,5.38,1.86,7.47-2.72,11.9-.92,2.23-6.42,8.85-7.39,11.4-11.88.84,8.37-9.17,22.97-10.8,33.59-14.2-3.89-29.7-4.22-36.68-13.4Z"/>
  <path class="cls-7" d="m335.44,306.56c3.22-5.34,8.7-8.99,14.99-9.81,11.29-1.48,21.65,6.48,23.13,17.78.64,4.92-.5,9.86-3.2,13.98.02.11.03.21.04.32,1.43,10.88-5.92,20.91-16.58,22.94-3.25,3.45-7.58,5.66-12.31,6.28-11.29,1.48-21.65-6.48-23.13-17.78-.32-2.47-.2-4.96.36-7.37-1.51-2.2-2.47-4.72-2.82-7.38-1.22-9.28,5.33-17.8,14.61-19.02,1.63-.21,3.28-.19,4.89.07Z"/>
  <path class="cls-3" d="m330.93,309.39c2.1-.28,4.15-.07,6.04.53,2.44-5.4,7.54-9.45,13.84-10.28,9.69-1.27,18.58,5.56,19.85,15.25.62,4.77-.71,9.35-3.39,12.92.1.45.18.92.24,1.38,1.27,9.66-5.52,18.53-15.17,19.84-2.75,3.24-6.66,5.5-11.2,6.1-9.69,1.27-18.58-5.56-19.85-15.25-.35-2.64-.09-5.22.66-7.61-1.64-1.97-2.76-4.42-3.12-7.15-1.01-7.68,4.41-14.73,12.09-15.73Z"/>
  <path class="cls-7" d="m348.24,345.21c.44-1.36,1.07-2.61,1.9-3.87.55-.84,1.51-2.01,1.86-2.92.2-.51.16-.95.02-1.47l-.85-3.15,3.22-.51c3.67-.58,4.32-4.4,8.03-6.07.07-2.55.82-4.9,1.97-7.33.91-1.91,2.39-4.28,2.8-6.34.06-.31.1-.63.11-.95l.27-9.15,5.09,7.62c5.72,8.56,3.22,26.78,6.91,37.33l1.08,3.1-3.2.72c-.96.22-1.92.45-2.88.69-10.96,2.8-25.9,9.15-37.05,5.84-.95-.28-1.87-.63-2.77-1.04l-7.38-3.4,7.85-2.09c1.87-.5,4.19-2.16,5.8-3.23,2.17-1.45,4.61-3.08,7.22-3.78Z"/>
  <path class="cls-5" d="m335.97,355.05c4.69-1.25,9.91-7.13,14.66-7.27.92-5.83,5.48-6.95,4.22-11.61,5.94-.93,5.62-6.24,10.64-6.76-1.1-7.09,4.58-11.28,4.75-16.72,4.93,7.39,2.83,25.96,6.58,36.67-15.16,3.41-29.78,10.78-40.84,5.69Z"/>
  <path class="cls-7" d="m384.83,330.89c2.92-5.94,8.39-10.29,14.96-11.73,11.81-2.59,23.48,4.89,26.07,16.7,1.13,5.15.37,10.47-2.11,15.07.03.11.05.22.08.33,2.49,11.38-4.36,22.64-15.45,25.76-3.13,3.94-7.5,6.67-12.44,7.75-11.81,2.59-23.48-4.89-26.07-16.7-.56-2.58-.66-5.23-.29-7.83-1.79-2.19-3.04-4.77-3.65-7.55-2.13-9.71,4.02-19.3,13.73-21.43,1.71-.37,3.45-.5,5.18-.37Z"/>
  <path class="cls-3" d="m380.32,334.3c2.2-.48,4.38-.45,6.44.01,2.09-5.93,7.11-10.67,13.7-12.12,10.13-2.22,20.15,4.2,22.37,14.33,1.09,4.99.09,9.95-2.41,13.96.14.47.27.95.38,1.44,2.21,10.1-4.16,20.09-14.24,22.35-2.61,3.67-6.54,6.42-11.28,7.46-10.13,2.22-20.15-4.2-22.37-14.33-.61-2.76-.57-5.51,0-8.1-1.91-1.94-3.32-4.42-3.95-7.27-1.76-8.03,3.33-15.97,11.36-17.73Z"/>
  <path class="cls-7" d="m401.87,370.6c.34-1.48.9-2.86,1.66-4.27.51-.93,1.41-2.26,1.7-3.26.16-.56.08-1.02-.11-1.56l-1.19-3.25,3.36-.83c3.83-.94,4.17-5.04,7.94-7.14-.16-2.7.42-5.25,1.42-7.92.79-2.1,2.13-4.74,2.38-6.95.04-.34.05-.68.03-1.01l-.54-9.7,6.07,7.59c6.82,8.54,5.83,28.03,10.68,38.85l1.43,3.18-3.32,1.05c-1,.32-1.99.65-2.98.99-11.33,3.95-26.56,12.02-38.65,9.53-1.03-.21-2.04-.49-3.03-.85l-8.11-2.92,8.11-2.92c1.93-.7,4.23-2.66,5.84-3.94,2.17-1.73,4.6-3.67,7.29-4.65Z"/>
  <path class="cls-5" d="m389.79,382.12c4.84-1.74,9.84-8.44,14.84-9.02.45-6.25,5.16-7.85,3.41-12.65,6.19-1.53,5.38-7.1,10.64-8.11-1.8-7.39,3.82-12.34,3.5-18.11,5.89,7.37,5.35,27.19,10.28,38.18-15.72,4.98-30.51,14.1-42.66,9.71Z"/>
  <path class="cls-3" d="m192.48,604.47c20.96-5.76,42.02-10.76,63.63-10.93,19.48-.16,37.11,5.41,54.89,11.04,17.3,5.47,34.75,10.99,53.22,10.77,17.99-.22,36.77-5.96,55.76-11.77,20.77-6.36,41.79-12.79,63.35-12.79s42.58,6.43,63.35,12.79c18.99,5.81,37.76,11.55,55.76,11.77,18.47.22,35.92-5.3,53.22-10.77,17.78-5.62,35.41-11.2,54.89-11.04,14.13.12,28.03,2.29,41.82,5.4-1.07,4.1-2.23,8.15-3.48,12.17-12.85-2.86-25.68-4.85-38.44-4.96-17.35-.14-34.09,5.15-50.98,10.49-18.2,5.76-36.55,11.56-57.18,11.31-19.8-.24-39.42-6.24-59.27-12.31-19.81-6.06-39.85-12.19-59.69-12.19s-39.89,6.13-59.69,12.19c-19.85,6.07-39.47,12.08-59.27,12.31-20.62.25-38.98-5.56-57.18-11.31-16.89-5.34-33.63-10.64-50.98-10.49-19.89.16-39.93,4.9-60,10.4-1.33-3.99-2.57-8.02-3.73-12.08h0Zm11.25,31.99c1.67,3.95,3.44,7.85,5.28,11.7,15.79-3.94,31.54-6.9,47.19-7.03,17.35-.14,34.09,5.15,50.98,10.49,18.2,5.76,36.55,11.56,57.18,11.31,19.8-.24,39.42-6.24,59.27-12.31,19.81-6.06,39.85-12.19,59.69-12.19s39.89,6.13,59.69,12.19c19.85,6.07,39.47,12.08,59.27,12.31,20.62.25,38.98-5.56,57.18-11.31,16.89-5.34,33.63-10.64,50.98-10.49,8.64.07,17.31,1,25.99,2.49,1.8-3.93,3.5-7.9,5.12-11.93-10.24-1.88-20.56-3.09-31.01-3.18-19.48-.16-37.11,5.41-54.89,11.04-17.3,5.47-34.75,10.99-53.22,10.77-17.99-.22-36.77-5.96-55.76-11.77-20.77-6.36-41.79-12.79-63.35-12.79s-42.58,6.43-63.35,12.79c-18.99,5.81-37.76,11.56-55.76,11.77-18.47.22-35.92-5.3-53.22-10.77-17.78-5.62-35.41-11.2-54.89-11.04-17.75.15-35.12,3.54-52.38,7.94h0Zm15.68,31.33c12.11-2.5,24.31-4.19,36.7-4.29,19.48-.16,37.11,5.41,54.89,11.04,17.3,5.47,34.75,10.99,53.22,10.77,17.99-.22,36.77-5.96,55.76-11.77,20.77-6.36,41.79-12.79,63.35-12.79s42.58,6.43,63.35,12.79c18.99,5.81,37.76,11.55,55.76,11.77,18.47.22,35.92-5.3,53.22-10.77,17.78-5.62,35.41-11.2,54.89-11.04,5.13.04,10.23.36,15.31.89-2.3,4.08-4.7,8.1-7.2,12.04-2.74-.19-5.48-.3-8.21-.32-17.35-.14-34.09,5.15-50.98,10.49-18.2,5.76-36.55,11.56-57.18,11.31-19.8-.24-39.42-6.24-59.27-12.32-19.81-6.06-39.85-12.19-59.69-12.19s-39.89,6.13-59.69,12.19c-19.85,6.07-39.47,12.08-59.27,12.32-20.62.25-38.98-5.56-57.18-11.31-16.89-5.34-33.63-10.64-50.98-10.49-9.87.08-19.78,1.29-29.71,3.16-2.45-3.77-4.82-7.59-7.08-11.48h0Zm21.46,31.57c3.18,4.05,6.47,8.02,9.87,11.89,1.82-.09,3.65-.14,5.47-.16,17.35-.14,34.09,5.15,50.98,10.49,18.2,5.76,36.55,11.56,57.18,11.32,19.8-.24,39.42-6.24,59.27-12.31,19.81-6.06,39.85-12.19,59.69-12.19s39.89,6.13,59.69,12.19c19.85,6.07,39.47,12.08,59.27,12.31,20.62.25,38.98-5.56,57.18-11.32,10.53-3.33,21-6.64,31.6-8.63,4.12-4.62,8.09-9.37,11.9-14.26-16.53,1.08-31.87,5.93-47.31,10.82-17.3,5.47-34.75,10.99-53.22,10.77-17.99-.22-36.77-5.96-55.76-11.77-20.77-6.36-41.79-12.79-63.35-12.79s-42.58,6.43-63.35,12.79c-18.99,5.81-37.76,11.56-55.76,11.77-18.47.22-35.92-5.3-53.22-10.77-17.78-5.62-35.41-11.2-54.89-11.04-5.11.04-10.19.35-15.24.88h0Zm33.23,35.49c12.65,1.98,24.74,5.8,36.9,9.65,17.3,5.47,34.75,10.99,53.22,10.77,17.99-.22,36.77-5.96,55.76-11.77,20.77-6.36,41.79-12.79,63.35-12.79s42.58,6.43,63.35,12.79c18.99,5.81,37.76,11.55,55.76,11.77,18.47.22,35.92-5.3,53.22-10.77l3.65-1.15c-9.76,7.96-20.08,15.27-30.87,21.86-8.4,1.72-17.05,2.79-26.15,2.68-19.8-.24-39.42-6.24-59.27-12.32-19.81-6.06-39.85-12.19-59.69-12.19s-39.89,6.13-59.69,12.19c-19.85,6.07-39.47,12.08-59.27,12.32-20.62.25-38.98-5.56-57.18-11.31-3.33-1.05-6.66-2.11-9.98-3.11-8.03-5.79-15.74-12-23.1-18.6h0Zm93.47,55.3c9.3,3.24,18.82,6.01,28.53,8.25,9.16-2.22,18.32-5.02,27.54-7.84,19.81-6.06,39.85-12.19,59.69-12.19s39.89,6.13,59.69,12.19c5.39,1.65,10.76,3.29,16.12,4.82,7.71-2.15,15.28-4.62,22.7-7.41-11.54-2.25-23.31-5.85-35.16-9.47-20.77-6.36-41.79-12.79-63.35-12.79s-42.58,6.43-63.35,12.79c-17.82,5.45-35.44,10.84-52.41,11.67Z"/>
  <path class="cls-7" d="m234.83,804.12l4.66,2.66c-.93,1.82-1.27,3.39-1.03,4.74.24,1.33,1.03,2.49,2.38,3.47,1.43,1.04,2.75,1.48,3.97,1.32,1.22-.15,2.16-.68,2.82-1.59.43-.58.63-1.19.62-1.82,0-.63-.27-1.37-.82-2.23-.37-.58-1.29-1.8-2.76-3.66-1.9-2.39-2.97-4.41-3.22-6.07-.36-2.33.16-4.48,1.58-6.43.91-1.26,2.08-2.2,3.51-2.84,1.43-.63,2.95-.8,4.55-.51,1.61.3,3.25,1.06,4.94,2.28,2.76,2,4.33,4.18,4.74,6.55.4,2.37-.18,4.71-1.76,7.03l-4.59-3c.73-1.41.99-2.62.77-3.62-.22-1.01-.95-1.96-2.2-2.87-1.29-.94-2.51-1.38-3.67-1.31-.74.04-1.35.38-1.81,1.02-.43.59-.57,1.25-.43,1.98.17.93,1.13,2.47,2.87,4.61,1.74,2.14,2.9,3.89,3.49,5.25.59,1.36.79,2.78.6,4.27-.19,1.49-.85,3.01-1.98,4.56-1.03,1.41-2.34,2.49-3.93,3.21-1.6.73-3.25.93-4.96.6-1.71-.33-3.53-1.18-5.43-2.57-2.77-2.02-4.38-4.28-4.82-6.8-.44-2.52.2-5.27,1.92-8.23h0Zm18.63,26.05l5.03,3.15,16.65-16.48-7.5,22.19,4.93,3.08,21.74-22.37-4.67-2.92-14.81,15.86,7.25-20.58-5.52-3.45-15.3,15.13,7.63-19.93-4.75-2.97-10.67,29.29h0Zm47.01,27.17l-5.31-2.71,1.04-7.25-9.66-4.92-5.14,5.16-5.18-2.64,23.25-22.37,5.16,2.63-4.17,32.1h0Zm-3.51-15.32l-6.59-3.36,8.4-8.42-1.81,11.78h0Zm9.25,17.65l10.3-23.14-7.35-3.27,2.1-4.71,19.69,8.76-2.1,4.71-7.33-3.26-10.3,23.14-5.01-2.23h0Zm36.07,14.2l-.34-32.37-5.47-1.89-19.91,25.39,5.49,1.89,4.37-5.82,10.25,3.53-.02,7.32,5.64,1.94h0Zm-5.61-14.69l.15-11.92-7.15,9.51,7,2.41h0Zm8.43,15.93l7.89-29.45,5.15,1.38,5.45,22.54,5.27-19.67,4.92,1.32-7.89,29.45-5.31-1.42-5.41-22.04-5.15,19.21-4.92-1.32h0Zm32.2,8.2l4.83-24.86-7.9-1.53.99-5.07,21.15,4.11-.98,5.07-7.88-1.53-4.83,24.86-5.38-1.05h0Zm16.82,3.76l5.44.67,1.55-12.63,1.1.13c1.25.15,2.15.38,2.7.67.55.3,1.04.79,1.48,1.46.44.68,1.21,2.27,2.32,4.8l3.12,7.07,6.5.8-2.57-6.31c-1.01-2.51-1.84-4.27-2.49-5.29-.65-1.02-1.52-1.98-2.6-2.9,2.41-.09,4.3-.81,5.67-2.14,1.37-1.34,2.19-3.14,2.47-5.41.22-1.79.03-3.42-.59-4.91-.61-1.48-1.54-2.58-2.78-3.28-1.24-.7-3.29-1.23-6.17-1.59l-11.44-1.4-3.72,30.26h0Zm7.58-16.8l.94-7.67,4.24.52c2.21.27,3.52.47,3.95.59.86.28,1.5.76,1.9,1.44.41.69.55,1.53.42,2.56-.11.91-.39,1.64-.83,2.2-.44.56-1,.93-1.68,1.09-.68.17-2.33.09-4.93-.23l-4.02-.49h0Zm43.82,21.29l-5.95-.31-2-7.04-10.83-.57-2.59,6.8-5.8-.3,12.14-29.9,5.78.3,9.25,31.02h0Zm-9.44-12.57l-3.14-11.5-4.25,11.11,7.39.39h0Zm25.34,12.43l-6.47-30.49h5.6l4.09,20.94,4.96-20.94h6.51l4.75,21.3,4.16-21.3h5.51l-6.59,30.49h-5.81l-5.4-22.8-5.39,22.8h-5.94Zm31.74-.04l-.53-30.49,5.47-.1.53,30.49-5.47.1h0Zm8.57-30.57l10.81-.76c2.14-.15,3.75-.16,4.81-.03,1.07.12,2.03.48,2.91,1.06.88.58,1.62,1.37,2.25,2.4.63,1.02.99,2.19,1.08,3.5.1,1.42-.15,2.76-.75,3.99-.6,1.24-1.47,2.19-2.59,2.87,1.68.42,3.02,1.25,3.99,2.49.98,1.24,1.53,2.74,1.65,4.5.1,1.38-.09,2.75-.57,4.1-.48,1.34-1.19,2.45-2.12,3.29-.93.85-2.12,1.41-3.56,1.7-.9.17-3.09.39-6.57.67l-9.21.64-2.13-30.42h0Zm5.82,4.68l.49,7.03,3.58-.25c2.13-.15,3.45-.28,3.96-.38.92-.19,1.64-.6,2.13-1.24.49-.64.7-1.45.63-2.44-.07-.94-.35-1.69-.85-2.25-.51-.55-1.22-.86-2.13-.92-.55-.03-2.1.04-4.67.22l-3.14.22h0Zm.85,12.1l.57,8.13,5.05-.35c1.97-.14,3.21-.28,3.73-.45.8-.22,1.43-.68,1.9-1.35.46-.68.66-1.56.59-2.64-.06-.91-.32-1.67-.75-2.28-.44-.61-1.04-1.04-1.8-1.28-.76-.24-2.39-.27-4.87-.09l-4.41.31h0Zm47,7.49l-5.9.83-3.31-6.53-10.74,1.51-1.25,7.17-5.75.81,6.22-31.66,5.73-.81,15,28.68h0Zm-11.66-10.54l-5.28-10.69-2.05,11.72,7.33-1.03h0Zm16.04,9.43l5.78-1.34.12-23.42,10.39,21,5.66-1.31-.44-31.19-5.37,1.24.74,21.69-9.42-19.68-6.34,1.46-.12,21.52-8.7-19.49-5.46,1.26,13.16,28.25h0Zm51.97-15.02l-5.67,1.84-4.39-5.86-10.31,3.35.02,7.28-5.52,1.8.62-32.26,5.51-1.79,19.75,25.64h0Zm-13.32-8.36l-7.05-9.61.02,11.89,7.04-2.29h0Zm24.45,3.7l4.61-2.15-10.14-21.75,15.01,19.49,4.78-2.23-5.26-24.03,10.14,21.75,4.61-2.15-12.89-27.63-7.44,3.47,4.38,20.91-13.25-16.77-7.43,3.46,12.89,27.63h0Zm13.69-40.48l4.79-2.65,8.01,14.44c1.27,2.29,2.16,3.75,2.65,4.36.81.98,1.79,1.58,2.92,1.82,1.14.24,2.38-.02,3.71-.76,1.36-.75,2.21-1.63,2.56-2.64.35-1,.33-2-.03-2.99-.36-.99-1.13-2.54-2.3-4.65l-8.18-14.75,4.79-2.65,7.76,14.01c1.78,3.2,2.9,5.54,3.38,7,.47,1.47.62,2.84.42,4.14-.19,1.29-.72,2.54-1.58,3.72-.87,1.19-2.24,2.3-4.12,3.34-2.26,1.26-4.14,1.91-5.64,1.97-1.5.06-2.84-.19-4.04-.75-1.2-.56-2.19-1.3-2.98-2.21-1.16-1.35-2.57-3.52-4.22-6.51l-7.88-14.23h0Zm38.72,12.82l4.59-2.98-5.02-7.73.95-6.7,14.04,7.95,5.94-3.86-19.17-9.75,2.09-15.52-6.17,4.01-1.9,17.38-7.37-11.35-4.59,2.98,16.61,25.57h0Zm27.13-19.13l-15.24-20.23-6.42,4.84-3.11-4.12,17.21-12.97,3.11,4.12-6.41,4.83,15.24,20.23-4.38,3.3h0Zm13.12-10.82l4.19-3.52-19.6-23.36-4.19,3.52,19.6,23.36Z"/>
</svg>